<svg version="1.1" xmlns="http://www.w3.org/2000/svg" viewBox="0 0 10020 566.40625" width="10020" height="566.40625">
  <!-- svg-source:excalidraw -->
  
  <defs>
    <style>
      @font-face {
        font-family: "Virgil";
        src: url("https://excalidraw.com/Virgil.woff2");
      }
      @font-face {
        font-family: "Cascadia";
        src: url("https://excalidraw.com/Cascadia.woff2");
      }
    </style>
  </defs>
  <rect x="0" y="0" width="10020" height="566.40625" fill="#fff0"></rect><g stroke-linecap="round" transform="translate(10 10) rotate(0 5000 0.5)"><path d="M-0.52 -0.26 C3022.65 -30.2, 6044.59 -29.2, 9999.32 0.22 M0.38 -0.31 C3948.03 -0.44, 7895.41 0.2, 9999.95 0.08 M10000.08 -0.06 C10000.09 0.27, 10000.05 0.48, 10000.09 0.92 M9999.97 0.01 C9999.95 0.33, 9999.98 0.72, 10000 0.99 M10000.22 1.51 C7095.77 35.76, 4193.15 34.95, -0.25 0.75 M10000.01 1.13 C7827.97 2.74, 5656.23 3.35, -0.33 0.84 M-0.04 1.01 C0 0.63, -0.06 0.15, 0.05 -0.03 M-0.04 0.95 C-0.04 0.73, -0.03 0.59, -0.05 -0.02" stroke="transparent" stroke-width="1" fill="none"></path></g><g transform="translate(534 533.40625) rotate(0 12.5 2)" stroke="none"><path fill="#000000" d="M -1.31,0 Q -1.31,0 -1.88,-1.43 -2.45,-2.87 -2.54,-4.06 -2.63,-5.24 -2.71,-6.32 -2.80,-7.40 -2.78,-8.15 -2.75,-8.89 -2.71,-9.22 -2.67,-9.55 -2.55,-9.86 -2.43,-10.17 -2.25,-10.45 -2.06,-10.72 -1.81,-10.94 -1.56,-11.16 -1.27,-11.31 -0.97,-11.47 -0.65,-11.55 -0.33,-11.63 0.00,-11.63 0.33,-11.63 0.65,-11.55 0.97,-11.47 1.27,-11.31 1.56,-11.16 1.81,-10.94 2.06,-10.72 2.25,-10.45 2.43,-10.17 2.55,-9.86 2.67,-9.55 2.71,-9.22 2.75,-8.89 3.15,-6.36 3.56,-3.83 3.61,-1.57 3.67,0.68 3.39,2.97 3.12,5.26 3.01,7.20 2.90,9.14 1.69,9.34 0.48,9.53 2.75,9.50 5.01,9.47 7.32,8.94 9.63,8.40 12.51,7.93 15.39,7.46 17.74,7.09 20.08,6.72 22.45,6.78 24.82,6.83 25.04,6.84 25.25,6.84 25.45,6.92 25.65,6.99 25.82,7.12 25.98,7.25 26.10,7.43 26.21,7.61 26.27,7.82 26.32,8.02 26.30,8.23 26.29,8.44 26.20,8.64 26.12,8.84 25.98,9.00 25.84,9.15 25.65,9.26 25.47,9.37 25.26,9.41 25.05,9.45 24.84,9.42 24.63,9.39 24.44,9.30 24.25,9.21 24.10,9.06 23.95,8.91 23.85,8.72 23.76,8.53 23.73,8.32 23.70,8.11 23.74,7.90 23.77,7.69 23.88,7.50 23.98,7.32 24.14,7.18 24.30,7.03 24.49,6.95 24.69,6.86 24.90,6.84 25.11,6.83 25.32,6.88 25.52,6.93 25.70,7.04 25.88,7.15 26.02,7.32 26.15,7.48 26.22,7.68 26.30,7.88 26.30,8.09 26.31,8.31 26.25,8.51 26.19,8.71 26.07,8.89 25.94,9.06 25.77,9.18 25.60,9.31 25.40,9.37 25.19,9.44 25.19,9.44 25.19,9.44 23.10,10.13 21.00,10.82 18.67,11.50 16.33,12.18 13.63,12.83 10.92,13.48 8.19,14.22 5.46,14.96 3.10,15.06 0.74,15.15 -0.37,14.68 -1.49,14.20 -2.03,11.52 -2.57,8.83 -2.45,6.70 -2.33,4.57 -2.08,2.69 -1.82,0.80 -1.87,-1.32 -1.92,-3.46 -1.97,-4.91 -2.02,-6.35 -2.39,-7.62 -2.75,-8.89 -2.71,-9.22 -2.67,-9.55 -2.55,-9.86 -2.43,-10.17 -2.25,-10.45 -2.06,-10.72 -1.81,-10.94 -1.56,-11.16 -1.27,-11.31 -0.97,-11.47 -0.65,-11.55 -0.33,-11.63 -0.00,-11.63 0.33,-11.63 0.65,-11.55 0.97,-11.47 1.27,-11.31 1.56,-11.16 1.81,-10.94 2.06,-10.72 2.25,-10.45 2.43,-10.17 2.55,-9.86 2.67,-9.55 2.71,-9.22 2.75,-8.89 2.78,-8.15 2.80,-7.40 2.71,-6.32 2.63,-5.24 2.54,-4.06 2.45,-2.87 1.88,-1.43 1.31,0 1.29,0.15 1.27,0.31 1.21,0.46 1.16,0.61 1.07,0.74 0.98,0.87 0.86,0.97 0.74,1.08 0.60,1.15 0.46,1.22 0.31,1.26 0.15,1.30 -0.00,1.30 -0.15,1.30 -0.31,1.26 -0.46,1.22 -0.60,1.15 -0.74,1.08 -0.86,0.97 -0.98,0.87 -1.07,0.74 -1.16,0.61 -1.21,0.46 -1.27,0.31 -1.29,0.15 -1.31,-0.00 -1.31,-0.00 L -1.31,0 Z"></path></g><g transform="translate(551 532.40625) rotate(0 2 9)" stroke="none"><path fill="#000000" d="M 1.24,-0.41 Q 1.24,-0.41 2.65,1.99 4.06,4.39 4.75,7.33 5.44,10.26 5.74,12.44 6.03,14.62 5.65,17.02 5.27,19.42 5.25,19.63 5.23,19.84 5.15,20.04 5.06,20.23 4.91,20.39 4.77,20.54 4.58,20.64 4.40,20.74 4.19,20.78 3.98,20.82 3.77,20.78 3.56,20.75 3.37,20.65 3.18,20.56 3.03,20.40 2.88,20.25 2.79,20.06 2.70,19.87 2.68,19.66 2.65,19.45 2.70,19.24 2.74,19.03 2.85,18.85 2.95,18.66 3.11,18.52 3.28,18.38 3.47,18.30 3.67,18.22 3.88,18.21 4.09,18.20 4.30,18.25 4.50,18.31 4.68,18.42 4.86,18.54 4.99,18.71 5.12,18.88 5.19,19.08 5.26,19.28 5.26,19.49 5.26,19.70 5.20,19.91 5.13,20.11 5.00,20.28 4.88,20.45 4.70,20.57 4.53,20.69 4.32,20.75 4.12,20.81 3.91,20.80 3.69,20.79 3.50,20.71 3.30,20.64 3.13,20.50 2.97,20.36 2.86,20.18 2.75,20.00 2.70,19.79 2.65,19.59 2.65,19.59 2.65,19.59 1.90,17.43 1.14,15.27 0.88,13.33 0.61,11.38 0.00,8.66 -0.61,5.95 -0.92,3.18 -1.24,0.41 -1.27,0.26 -1.30,0.10 -1.30,-0.05 -1.29,-0.21 -1.25,-0.36 -1.20,-0.51 -1.12,-0.65 -1.04,-0.78 -0.93,-0.90 -0.83,-1.01 -0.69,-1.10 -0.56,-1.18 -0.41,-1.23 -0.26,-1.28 -0.10,-1.29 0.05,-1.31 0.20,-1.28 0.36,-1.26 0.51,-1.19 0.65,-1.13 0.78,-1.04 0.91,-0.94 1.01,-0.82 1.11,-0.70 1.17,-0.55 1.24,-0.41 1.24,-0.41 L 1.24,-0.41 Z"></path></g><g transform="translate(568 539.40625) rotate(0 7.5 1.5)" stroke="none"><path fill="#000000" d="M -1.21,-0.48 Q -1.21,-0.48 -1.22,-2.19 -1.23,-3.89 -0.07,-5.21 1.08,-6.54 3.17,-7.23 5.26,-7.92 7.88,-7.49 10.51,-7.06 12.43,-5.81 14.35,-4.56 15.57,-2.87 16.79,-1.18 17.05,0.88 17.31,2.96 16.27,5.05 15.23,7.14 12.43,8.35 9.62,9.55 9.42,9.63 9.22,9.70 9.01,9.72 8.80,9.73 8.59,9.67 8.39,9.62 8.21,9.50 8.04,9.38 7.91,9.21 7.78,9.04 7.71,8.84 7.64,8.64 7.64,8.43 7.64,8.22 7.71,8.01 7.77,7.81 7.90,7.64 8.03,7.47 8.21,7.35 8.38,7.23 8.59,7.18 8.79,7.12 9.00,7.13 9.21,7.14 9.41,7.22 9.61,7.30 9.77,7.43 9.93,7.57 10.04,7.75 10.15,7.93 10.20,8.14 10.25,8.35 10.23,8.56 10.20,8.77 10.11,8.96 10.03,9.16 9.88,9.31 9.74,9.47 9.55,9.57 9.36,9.67 9.15,9.70 8.94,9.74 8.73,9.70 8.52,9.67 8.33,9.57 8.15,9.47 8.00,9.32 7.85,9.16 7.76,8.97 7.67,8.78 7.65,8.57 7.63,8.36 7.67,8.15 7.71,7.94 7.82,7.76 7.93,7.58 8.09,7.44 8.26,7.30 8.26,7.30 8.26,7.30 9.72,5.91 11.18,4.52 11.85,2.92 12.52,1.33 11.93,0.41 11.34,-0.50 10.34,-1.33 9.35,-2.15 7.83,-2.54 6.30,-2.94 4.92,-2.39 3.53,-1.85 2.37,-0.68 1.21,0.48 1.14,0.62 1.06,0.76 0.96,0.88 0.85,0.99 0.72,1.08 0.58,1.17 0.44,1.22 0.29,1.28 0.13,1.29 -0.02,1.31 -0.18,1.29 -0.33,1.26 -0.48,1.21 -0.63,1.15 -0.75,1.05 -0.88,0.96 -0.99,0.84 -1.09,0.72 -1.16,0.58 -1.23,0.44 -1.27,0.28 -1.30,0.13 -1.30,-0.02 -1.30,-0.18 -1.26,-0.33 -1.21,-0.48 -1.21,-0.48 L -1.21,-0.48 Z"></path></g><g transform="translate(597 530.40625) rotate(0 -0.5 6.5)" stroke="none"><path fill="#000000" d="M 1.12,0.67 Q 1.12,0.67 0.63,2.34 0.15,4.00 -0.85,5.29 -1.87,6.58 -0.95,8.21 -0.04,9.84 1.85,10.72 3.75,11.60 3.94,11.67 4.14,11.75 4.30,11.89 4.47,12.03 4.58,12.21 4.69,12.39 4.73,12.60 4.78,12.81 4.76,13.02 4.73,13.23 4.64,13.42 4.56,13.61 4.41,13.77 4.26,13.92 4.08,14.02 3.89,14.12 3.68,14.16 3.47,14.19 3.26,14.16 3.05,14.13 2.86,14.03 2.67,13.93 2.53,13.77 2.38,13.62 2.29,13.43 2.20,13.23 2.18,13.02 2.16,12.81 2.20,12.60 2.25,12.40 2.35,12.21 2.46,12.03 2.63,11.89 2.79,11.76 2.98,11.68 3.18,11.60 3.39,11.59 3.61,11.57 3.81,11.63 4.02,11.69 4.19,11.81 4.37,11.92 4.50,12.09 4.63,12.26 4.69,12.46 4.76,12.66 4.76,12.88 4.76,13.09 4.70,13.29 4.63,13.49 4.50,13.66 4.37,13.83 4.20,13.95 4.02,14.07 3.82,14.13 3.61,14.19 3.40,14.17 3.19,14.16 3.19,14.16 3.19,14.16 0.08,13.66 -3.01,13.15 -4.32,11.76 -5.64,10.36 -6.05,8.69 -6.47,7.03 -5.90,5.47 -5.34,3.91 -4.47,2.82 -3.60,1.74 -2.36,0.53 -1.12,-0.67 -1.02,-0.80 -0.93,-0.92 -0.80,-1.02 -0.68,-1.12 -0.53,-1.18 -0.39,-1.25 -0.23,-1.28 -0.08,-1.31 0.07,-1.30 0.23,-1.29 0.38,-1.24 0.53,-1.19 0.67,-1.11 0.80,-1.03 0.91,-0.92 1.03,-0.81 1.11,-0.67 1.19,-0.54 1.24,-0.39 1.29,-0.24 1.30,-0.08 1.31,0.07 1.28,0.23 1.25,0.38 1.19,0.53 1.12,0.67 1.12,0.67 L 1.12,0.67 Z"></path></g><g transform="translate(624 532.40625) rotate(0 -0.5 7.5)" stroke="none"><path fill="#000000" d="M 1.31,0 Q 1.31,0 1.91,2.87 2.51,5.75 2.51,8.12 2.51,10.49 1.47,13.19 0.42,15.89 0.32,16.08 0.22,16.27 0.06,16.41 -0.08,16.56 -0.28,16.65 -0.47,16.74 -0.68,16.76 -0.89,16.78 -1.10,16.73 -1.31,16.69 -1.49,16.58 -1.67,16.46 -1.81,16.30 -1.94,16.14 -2.02,15.94 -2.10,15.74 -2.11,15.53 -2.12,15.32 -2.06,15.11 -2.00,14.91 -1.88,14.74 -1.76,14.56 -1.59,14.43 -1.42,14.30 -1.22,14.24 -1.02,14.17 -0.81,14.17 -0.59,14.17 -0.39,14.24 -0.19,14.31 -0.02,14.44 0.13,14.57 0.25,14.75 0.37,14.92 0.43,15.13 0.48,15.33 0.47,15.55 0.46,15.76 0.38,15.95 0.30,16.15 0.16,16.31 0.02,16.47 -0.15,16.58 -0.34,16.69 -0.54,16.74 -0.75,16.78 -0.96,16.76 -1.17,16.73 -1.37,16.64 -1.56,16.55 -1.71,16.40 -1.86,16.26 -1.96,16.07 -2.06,15.88 -2.09,15.67 -2.13,15.46 -2.09,15.25 -2.06,15.04 -2.06,15.04 -2.06,15.04 -2.28,12.77 -2.51,10.49 -2.51,8.12 -2.51,5.75 -1.91,2.87 -1.31,0 -1.29,-0.15 -1.27,-0.31 -1.21,-0.46 -1.16,-0.61 -1.07,-0.74 -0.98,-0.87 -0.86,-0.97 -0.74,-1.08 -0.60,-1.15 -0.46,-1.22 -0.31,-1.26 -0.15,-1.30 0.00,-1.30 0.15,-1.30 0.31,-1.26 0.46,-1.22 0.60,-1.15 0.74,-1.08 0.86,-0.97 0.98,-0.87 1.07,-0.74 1.16,-0.61 1.21,-0.46 1.27,-0.31 1.29,-0.15 1.31,0.00 1.31,0.00 L 1.31,0 Z"></path></g><g transform="translate(631 538.40625) rotate(0 -3.5 -0.5)" stroke="none"><path fill="#000000" d="M 0,1.31 Q 0,1.31 -0.97,0 -1.95,-1.31 -1.74,-1.27 -1.53,-1.24 -1.34,-1.14 -1.16,-1.04 -1.01,-0.89 -0.86,-0.73 -0.77,-0.54 -0.68,-0.35 -0.66,-0.14 -0.64,0.07 -0.68,0.27 -0.73,0.48 -0.84,0.66 -0.95,0.85 -1.11,0.98 -1.27,1.12 -1.47,1.20 -1.67,1.28 -1.88,1.29 -2.09,1.30 -2.30,1.24 -2.50,1.19 -2.68,1.07 -2.85,0.95 -2.98,0.78 -3.11,0.61 -3.18,0.41 -3.25,0.21 -3.25,-0.00 -3.25,-0.21 -3.18,-0.41 -3.11,-0.61 -2.98,-0.78 -2.85,-0.95 -2.68,-1.07 -2.50,-1.19 -2.30,-1.24 -2.09,-1.30 -1.88,-1.29 -1.67,-1.28 -1.47,-1.20 -1.27,-1.12 -1.11,-0.98 -0.95,-0.84 -0.84,-0.66 -0.73,-0.48 -0.68,-0.27 -0.64,-0.07 -0.66,0.14 -0.68,0.35 -0.77,0.54 -0.86,0.73 -1.01,0.89 -1.16,1.04 -1.34,1.14 -1.53,1.24 -1.74,1.27 -1.95,1.31 -1.95,1.31 -1.95,1.31 -0.97,0 0,-1.31 0.15,-1.29 0.31,-1.27 0.46,-1.21 0.61,-1.16 0.74,-1.07 0.87,-0.98 0.97,-0.86 1.08,-0.74 1.15,-0.60 1.22,-0.46 1.26,-0.31 1.30,-0.15 1.30,0.00 1.30,0.15 1.26,0.31 1.22,0.46 1.15,0.60 1.08,0.74 0.97,0.86 0.87,0.98 0.74,1.07 0.61,1.16 0.46,1.21 0.31,1.27 0.15,1.29 -0.00,1.31 -0.00,1.31 L 0,1.31 Z"></path></g><g transform="translate(648 530.40625) rotate(0 13 8.5)" stroke="none"><path fill="#000000" d="M -0.65,-1.14 Q -0.65,-1.14 1.13,-2.69 2.91,-4.24 6.42,-5.92 9.94,-7.61 12.96,-8.64 15.98,-9.67 17.93,-10.11 19.87,-10.55 21.36,-10.21 22.85,-9.86 23.66,-8.53 24.47,-7.21 23.44,-4.36 22.41,-1.51 21.02,0.70 19.64,2.92 18.84,4.55 18.04,6.19 18.99,7.90 19.93,9.61 21.39,10.56 22.86,11.52 24.29,13.03 25.72,14.54 26.46,16.09 27.19,17.65 26.82,19.99 26.46,22.34 24.84,23.83 23.22,25.31 20.92,26.10 18.62,26.89 16.39,26.99 14.16,27.09 13.95,27.10 13.73,27.11 13.53,27.05 13.33,26.99 13.15,26.87 12.98,26.75 12.85,26.58 12.72,26.41 12.66,26.21 12.59,26.01 12.59,25.80 12.59,25.58 12.66,25.38 12.73,25.18 12.86,25.01 12.99,24.85 13.17,24.73 13.35,24.61 13.55,24.55 13.76,24.50 13.97,24.51 14.18,24.53 14.38,24.61 14.57,24.69 14.73,24.83 14.90,24.96 15.00,25.15 15.11,25.33 15.16,25.54 15.20,25.75 15.17,25.96 15.15,26.17 15.06,26.36 14.97,26.55 14.82,26.71 14.67,26.86 14.48,26.96 14.30,27.05 14.09,27.09 13.88,27.12 13.67,27.08 13.46,27.05 13.27,26.95 13.08,26.85 12.94,26.69 12.79,26.53 12.71,26.34 12.62,26.15 12.60,25.94 12.58,25.72 12.62,25.52 12.67,25.31 12.78,25.13 12.89,24.95 13.06,24.81 13.22,24.68 13.42,24.60 13.62,24.52 13.62,24.52 13.62,24.52 15.43,23.77 17.25,23.01 18.93,22.39 20.60,21.76 21.58,21.28 22.56,20.80 22.54,19.11 22.53,17.42 21.42,16.20 20.32,14.98 18.54,13.57 16.75,12.17 15.48,10.22 14.21,8.26 14.31,6.43 14.42,4.59 15.30,2.70 16.18,0.81 17.37,-1.20 18.57,-3.22 19.67,-4.71 20.77,-6.20 19.10,-5.80 17.43,-5.41 14.65,-4.47 11.87,-3.53 8.50,-1.94 5.13,-0.35 2.89,0.39 0.65,1.14 0.50,1.20 0.35,1.26 0.20,1.28 0.04,1.31 -0.11,1.29 -0.26,1.28 -0.41,1.23 -0.56,1.18 -0.70,1.09 -0.83,1.01 -0.94,0.89 -1.05,0.78 -1.13,0.64 -1.21,0.50 -1.25,0.35 -1.29,0.20 -1.30,0.04 -1.30,-0.11 -1.27,-0.26 -1.24,-0.42 -1.17,-0.56 -1.10,-0.70 -1.00,-0.82 -0.90,-0.95 -0.77,-1.04 -0.65,-1.14 -0.65,-1.14 L -0.65,-1.14 Z"></path></g><g transform="translate(681 537.40625) rotate(0 6.5 5)" stroke="none"><path fill="#000000" d="M -0.48,-1.21 Q -0.48,-1.21 0.73,-2.35 1.95,-3.48 4.05,-3.78 6.14,-4.08 8.26,-3.54 10.38,-3.01 12.15,-1.51 13.91,-0.01 14.40,2.58 14.88,5.18 13.91,7.14 12.95,9.10 9.88,10.73 6.82,12.36 6.63,12.45 6.44,12.54 6.22,12.56 6.01,12.58 5.81,12.53 5.60,12.48 5.42,12.37 5.24,12.26 5.10,12.09 4.97,11.93 4.89,11.73 4.81,11.53 4.81,11.32 4.80,11.11 4.86,10.90 4.92,10.70 5.04,10.52 5.16,10.35 5.33,10.22 5.50,10.10 5.70,10.03 5.90,9.97 6.12,9.97 6.33,9.97 6.53,10.04 6.73,10.11 6.90,10.24 7.07,10.37 7.18,10.55 7.30,10.73 7.35,10.94 7.41,11.14 7.39,11.35 7.38,11.56 7.30,11.76 7.22,11.96 7.08,12.12 6.94,12.28 6.75,12.38 6.57,12.49 6.36,12.54 6.15,12.58 5.94,12.55 5.73,12.53 5.54,12.43 5.35,12.34 5.20,12.20 5.04,12.05 4.95,11.86 4.85,11.67 4.82,11.46 4.79,11.25 4.82,11.04 4.86,10.83 4.96,10.64 5.07,10.46 5.22,10.31 5.38,10.17 5.38,10.17 5.38,10.17 7.88,7.70 10.38,5.23 9.61,3.42 8.85,1.61 7.74,1.21 6.64,0.81 5.21,0.99 3.79,1.18 2.13,1.20 0.48,1.21 0.33,1.26 0.18,1.30 0.02,1.30 -0.13,1.30 -0.28,1.27 -0.44,1.23 -0.58,1.16 -0.72,1.09 -0.84,0.99 -0.96,0.88 -1.05,0.75 -1.15,0.63 -1.21,0.48 -1.26,0.33 -1.29,0.18 -1.31,0.02 -1.29,-0.13 -1.28,-0.29 -1.22,-0.44 -1.17,-0.58 -1.08,-0.72 -0.99,-0.85 -0.88,-0.96 -0.76,-1.06 -0.62,-1.14 -0.48,-1.21 -0.48,-1.21 L -0.48,-1.21 Z"></path></g><g transform="translate(710 531.40625) rotate(0 -5 7)" stroke="none"><path fill="#000000" d="M 0.67,1.12 Q 0.67,1.12 -0.53,2.36 -1.75,3.59 -3.71,5.05 -5.67,6.51 -7.30,7.90 -8.93,9.30 -7.70,10.26 -6.47,11.22 -3.37,12.28 -0.27,13.35 -0.07,13.43 0.12,13.51 0.28,13.65 0.44,13.79 0.54,13.97 0.65,14.16 0.69,14.37 0.74,14.57 0.71,14.78 0.69,15.00 0.59,15.19 0.50,15.38 0.35,15.53 0.21,15.68 0.02,15.78 -0.16,15.88 -0.37,15.91 -0.58,15.94 -0.79,15.90 -1.00,15.87 -1.19,15.76 -1.37,15.66 -1.52,15.50 -1.66,15.35 -1.75,15.15 -1.84,14.96 -1.86,14.75 -1.88,14.54 -1.83,14.33 -1.78,14.12 -1.67,13.94 -1.55,13.76 -1.39,13.63 -1.23,13.49 -1.03,13.42 -0.83,13.34 -0.62,13.33 -0.41,13.32 -0.20,13.38 -0.00,13.44 0.17,13.56 0.34,13.69 0.47,13.86 0.59,14.03 0.66,14.23 0.72,14.43 0.72,14.64 0.72,14.86 0.65,15.06 0.58,15.26 0.45,15.43 0.31,15.59 0.14,15.71 -0.03,15.83 -0.24,15.88 -0.44,15.93 -0.65,15.92 -0.87,15.91 -0.87,15.91 -0.87,15.91 -4.89,15.30 -8.91,14.69 -10.89,12.96 -12.87,11.22 -12.40,8.73 -11.93,6.24 -10.10,4.62 -8.27,3.00 -6.13,1.42 -3.99,-0.14 -2.33,-0.63 -0.67,-1.12 -0.53,-1.19 -0.38,-1.25 -0.23,-1.28 -0.07,-1.31 0.08,-1.30 0.24,-1.29 0.39,-1.24 0.54,-1.19 0.67,-1.11 0.81,-1.03 0.92,-0.91 1.03,-0.80 1.11,-0.67 1.19,-0.53 1.24,-0.38 1.29,-0.23 1.30,-0.07 1.31,0.08 1.28,0.23 1.25,0.39 1.18,0.53 1.12,0.68 1.02,0.80 0.92,0.93 0.80,1.02 0.67,1.12 0.67,1.12 L 0.67,1.12 Z"></path></g><g transform="translate(740 534.40625) rotate(0 -3.5 1)" stroke="none"><path fill="#000000" d="M 0.58,1.17 Q 0.58,1.17 -0.37,2.17 -1.34,3.17 -4.90,3.16 -8.46,3.15 -8.67,3.14 -8.88,3.12 -9.08,3.05 -9.28,2.97 -9.44,2.83 -9.60,2.69 -9.71,2.51 -9.82,2.33 -9.87,2.12 -9.92,1.91 -9.89,1.70 -9.87,1.49 -9.78,1.30 -9.69,1.11 -9.55,0.95 -9.40,0.80 -9.21,0.70 -9.03,0.60 -8.82,0.56 -8.61,0.53 -8.40,0.56 -8.19,0.60 -8.00,0.70 -7.81,0.79 -7.66,0.95 -7.52,1.10 -7.43,1.30 -7.34,1.49 -7.32,1.70 -7.29,1.91 -7.34,2.12 -7.38,2.33 -7.49,2.51 -7.60,2.69 -7.76,2.83 -7.93,2.97 -8.12,3.04 -8.32,3.12 -8.53,3.14 -8.74,3.15 -8.95,3.09 -9.15,3.03 -9.33,2.92 -9.51,2.80 -9.63,2.63 -9.76,2.46 -9.83,2.26 -9.90,2.06 -9.90,1.84 -9.90,1.63 -9.83,1.43 -9.77,1.23 -9.64,1.06 -9.51,0.89 -9.33,0.77 -9.16,0.65 -8.95,0.59 -8.75,0.54 -8.75,0.54 -8.75,0.54 -6.00,-0.16 -3.25,-0.87 -1.92,-1.02 -0.58,-1.17 -0.43,-1.22 -0.28,-1.28 -0.13,-1.29 0.02,-1.31 0.18,-1.29 0.33,-1.26 0.48,-1.20 0.63,-1.15 0.76,-1.05 0.89,-0.96 0.99,-0.84 1.09,-0.72 1.16,-0.58 1.23,-0.44 1.27,-0.28 1.30,-0.13 1.30,0.02 1.30,0.18 1.25,0.33 1.21,0.48 1.14,0.62 1.06,0.76 0.95,0.88 0.85,1.00 0.71,1.08 0.58,1.17 0.58,1.17 L 0.58,1.17 Z"></path></g><g transform="translate(738 523.40625) rotate(0 -4 1.5)" stroke="none"><path fill="#000000" d="M 0.48,1.21 Q 0.48,1.21 -0.78,2.19 -2.06,3.16 -4.34,3.53 -6.62,3.90 -6.83,3.94 -7.04,3.97 -7.25,3.94 -7.46,3.91 -7.65,3.82 -7.84,3.72 -7.99,3.57 -8.14,3.42 -8.23,3.23 -8.33,3.04 -8.35,2.83 -8.38,2.62 -8.34,2.41 -8.30,2.20 -8.19,2.02 -8.09,1.83 -7.93,1.69 -7.77,1.55 -7.57,1.47 -7.38,1.38 -7.17,1.37 -6.96,1.35 -6.75,1.40 -6.54,1.46 -6.36,1.57 -6.19,1.69 -6.05,1.85 -5.92,2.02 -5.85,2.22 -5.78,2.42 -5.77,2.63 -5.77,2.85 -5.83,3.05 -5.90,3.25 -6.02,3.42 -6.15,3.59 -6.32,3.72 -6.49,3.84 -6.70,3.90 -6.90,3.96 -7.11,3.96 -7.32,3.95 -7.52,3.87 -7.72,3.80 -7.89,3.67 -8.05,3.53 -8.17,3.35 -8.28,3.17 -8.33,2.97 -8.38,2.76 -8.36,2.55 -8.34,2.34 -8.26,2.14 -8.17,1.95 -8.03,1.79 -7.89,1.63 -7.70,1.53 -7.51,1.43 -7.52,1.43 -7.52,1.43 -5.60,0.28 -3.68,-0.86 -2.08,-1.04 -0.48,-1.21 -0.33,-1.26 -0.18,-1.30 -0.02,-1.30 0.13,-1.30 0.28,-1.27 0.44,-1.23 0.58,-1.16 0.72,-1.09 0.84,-0.99 0.96,-0.88 1.05,-0.75 1.15,-0.63 1.21,-0.48 1.26,-0.33 1.29,-0.18 1.31,-0.02 1.29,0.13 1.28,0.29 1.22,0.44 1.17,0.58 1.08,0.72 0.99,0.85 0.88,0.96 0.76,1.06 0.62,1.14 0.48,1.21 0.48,1.21 L 0.48,1.21 Z"></path></g><g transform="translate(770 526.40625) rotate(0 12 8.5)" stroke="none"><path fill="#000000" d="M -1.09,0.72 Q -1.09,0.72 -2.20,-0.00 -3.32,-0.73 -3.38,-1.84 -3.44,-2.94 -2.63,-4.27 -1.82,-5.60 0.24,-6.79 2.31,-7.98 6.17,-9.03 10.03,-10.07 13.15,-10.51 16.27,-10.94 18.99,-10.79 21.70,-10.65 23.57,-9.17 25.44,-7.70 25.53,-5.74 25.61,-3.78 24.53,-1.63 23.46,0.51 22.43,2.16 21.41,3.82 20.73,5.03 20.05,6.25 21.41,7.26 22.77,8.26 23.91,9.16 25.06,10.07 25.94,11.19 26.82,12.31 27.30,13.65 27.77,14.99 27.61,16.78 27.46,18.57 26.58,19.91 25.71,21.24 23.66,22.44 21.61,23.64 19.22,24.32 16.83,24.99 15.03,25.48 13.23,25.97 11.74,26.40 10.25,26.83 10.05,26.89 9.84,26.96 9.63,26.96 9.42,26.95 9.22,26.88 9.02,26.81 8.85,26.68 8.68,26.55 8.57,26.37 8.45,26.19 8.40,25.99 8.34,25.78 8.36,25.57 8.37,25.36 8.46,25.16 8.54,24.97 8.68,24.81 8.82,24.65 9.00,24.54 9.19,24.43 9.39,24.39 9.60,24.35 9.81,24.37 10.02,24.40 10.21,24.49 10.41,24.59 10.56,24.73 10.71,24.88 10.81,25.07 10.90,25.26 10.93,25.47 10.96,25.68 10.93,25.89 10.89,26.10 10.79,26.29 10.68,26.47 10.53,26.62 10.37,26.76 10.18,26.85 9.98,26.93 9.77,26.95 9.56,26.97 9.35,26.92 9.15,26.87 8.97,26.76 8.79,26.65 8.65,26.48 8.52,26.32 8.44,26.12 8.36,25.92 8.36,25.71 8.35,25.50 8.41,25.29 8.47,25.09 8.59,24.92 8.71,24.74 8.88,24.62 9.06,24.49 9.06,24.49 9.06,24.49 10.55,23.40 12.03,22.32 13.80,21.65 15.56,20.98 17.50,20.30 19.44,19.61 20.81,18.96 22.19,18.30 22.77,17.23 23.35,16.17 22.74,14.91 22.12,13.64 20.46,12.54 18.79,11.44 17.24,10.17 15.68,8.91 15.47,7.57 15.26,6.23 15.63,5.12 16.01,4.02 16.72,2.72 17.44,1.42 18.35,-0.13 19.26,-1.69 20.21,-3.69 21.17,-5.68 19.06,-5.77 16.95,-5.86 14.15,-5.48 11.34,-5.10 8.01,-4.25 4.68,-3.39 2.85,-3.05 1.02,-2.71 1.05,-1.71 1.09,-0.72 1.16,-0.58 1.23,-0.44 1.27,-0.29 1.30,-0.13 1.30,0.02 1.30,0.17 1.26,0.33 1.22,0.48 1.14,0.62 1.06,0.76 0.96,0.88 0.85,0.99 0.72,1.08 0.59,1.17 0.44,1.22 0.29,1.28 0.13,1.29 -0.02,1.31 -0.17,1.29 -0.33,1.26 -0.48,1.21 -0.62,1.15 -0.75,1.06 -0.88,0.96 -0.98,0.84 -1.09,0.72 -1.09,0.72 L -1.09,0.72 Z"></path></g></svg>