<svg version="1.1" xmlns="http://www.w3.org/2000/svg" viewBox="0 0 10020 601.40625" width="10020" height="601.40625">
  <!-- svg-source:excalidraw -->
  
  <defs>
    <style>
      @font-face {
        font-family: "Virgil";
        src: url("https://excalidraw.com/Virgil.woff2");
      }
      @font-face {
        font-family: "Cascadia";
        src: url("https://excalidraw.com/Cascadia.woff2");
      }
    </style>
  </defs>
  <rect x="0" y="0" width="10020" height="601.40625" fill="#fff0"></rect><g stroke-linecap="round" transform="translate(10 10) rotate(0 5000 0.5)"><path d="M-0.52 -0.26 C3022.65 -30.2, 6044.59 -29.2, 9999.32 0.22 M0.38 -0.31 C3948.03 -0.44, 7895.41 0.2, 9999.95 0.08 M10000.08 -0.06 C10000.09 0.27, 10000.05 0.48, 10000.09 0.92 M9999.97 0.01 C9999.95 0.33, 9999.98 0.72, 10000 0.99 M10000.22 1.51 C7095.77 35.76, 4193.15 34.95, -0.25 0.75 M10000.01 1.13 C7827.97 2.74, 5656.23 3.35, -0.33 0.84 M-0.04 1.01 C0 0.63, -0.06 0.15, 0.05 -0.03 M-0.04 0.95 C-0.04 0.73, -0.03 0.59, -0.05 -0.02" stroke="transparent" stroke-width="1" fill="none"></path></g><g transform="translate(600 591.40625) rotate(0 0.5 -6.5)" stroke="none"><path fill="#000" d="M -1.29,-0.21 Q -1.29,-0.21 -1.16,-1.96 -1.02,-3.71 -0.93,-4.96 -0.85,-6.22 -1.04,-9.26 -1.22,-12.31 -1.22,-12.52 -1.21,-12.73 -1.14,-12.93 -1.07,-13.13 -0.94,-13.30 -0.80,-13.46 -0.63,-13.58 -0.45,-13.69 -0.24,-13.74 -0.04,-13.80 0.17,-13.78 0.38,-13.76 0.57,-13.68 0.77,-13.60 0.93,-13.46 1.09,-13.31 1.19,-13.13 1.30,-12.95 1.34,-12.74 1.38,-12.53 1.35,-12.32 1.32,-12.11 1.23,-11.92 1.14,-11.73 0.99,-11.58 0.84,-11.42 0.65,-11.33 0.46,-11.23 0.25,-11.20 0.03,-11.18 -0.16,-11.21 -0.37,-11.25 -0.56,-11.36 -0.74,-11.46 -0.89,-11.62 -1.03,-11.78 -1.11,-11.97 -1.20,-12.17 -1.22,-12.38 -1.23,-12.59 -1.18,-12.80 -1.13,-13.00 -1.02,-13.18 -0.90,-13.36 -0.74,-13.50 -0.57,-13.63 -0.38,-13.70 -0.18,-13.78 0.03,-13.78 0.24,-13.79 0.44,-13.73 0.65,-13.67 0.82,-13.54 0.99,-13.42 1.12,-13.25 1.24,-13.08 1.30,-12.87 1.37,-12.67 1.37,-12.67 1.37,-12.67 1.93,-9.29 2.48,-5.91 2.33,-4.54 2.17,-3.18 1.73,-1.48 1.29,0.21 1.25,0.36 1.20,0.51 1.12,0.65 1.04,0.79 0.93,0.90 0.82,1.02 0.69,1.10 0.55,1.18 0.40,1.23 0.25,1.28 0.09,1.29 -0.05,1.31 -0.21,1.28 -0.37,1.25 -0.51,1.19 -0.66,1.13 -0.78,1.03 -0.91,0.94 -1.01,0.82 -1.11,0.69 -1.18,0.55 -1.24,0.41 -1.27,0.25 -1.30,0.10 -1.30,-0.05 -1.29,-0.21 -1.29,-0.21 L -1.29,-0.21 Z"></path></g></svg>