<svg xmlns="http://www.w3.org/2000/svg" version="1.1" height="61px" width="121px" viewBox="-10 -10 141 81" content="&lt;mxGraphModel dx=&quot;1698&quot; dy=&quot;717&quot; grid=&quot;1&quot; gridSize=&quot;10&quot; guides=&quot;1&quot; tooltips=&quot;1&quot; connect=&quot;1&quot; arrows=&quot;1&quot; fold=&quot;1&quot; page=&quot;0&quot; pageScale=&quot;1&quot; pageWidth=&quot;827&quot; pageHeight=&quot;1169&quot; math=&quot;0&quot; shadow=&quot;0&quot;&gt;&lt;root&gt;&lt;mxCell id=&quot;0&quot;/&gt;&lt;mxCell id=&quot;1&quot; parent=&quot;0&quot;/&gt;&lt;mxCell id=&quot;2&quot; value=&quot;&quot; style=&quot;whiteSpace=wrap;html=1;&quot; vertex=&quot;1&quot; parent=&quot;1&quot;&gt;&lt;mxGeometry x=&quot;-80&quot; y=&quot;200&quot; width=&quot;120&quot; height=&quot;60&quot; as=&quot;geometry&quot;/&gt;&lt;/mxCell&gt;&lt;/root&gt;&lt;/mxGraphModel&gt;"><style type="text/css"></style><path d="M 2.09 -0.96 L 119.66 1.22 L 122.26 59.24 L 1.44 59.26" fill="#ffffff" stroke="none" pointer-events="none"/><path d="M 0.5 0.5 C 25.98 -1.92 46.69 -1.78 120.5 0.5 M 0.5 0.5 C 28.17 0.96 55.57 1.64 120.5 0.5 M 120.5 0.5 C 119.98 17.24 119.69 31.98 120.5 60.5 M 120.5 0.5 C 120.48 24.61 119.15 48.74 120.5 60.5 M 120.5 60.5 C 87.23 61.54 53.49 58.95 0.5 60.5 M 120.5 60.5 C 82.47 59.94 45.74 59.82 0.5 60.5 M 0.5 60.5 C -1.52 37.02 1.46 11.73 0.5 0.5 M 0.5 60.5 C 0.56 44.48 0.05 27.2 0.5 0.5" fill="none" stroke="#000000" stroke-linejoin="round" stroke-linecap="round" stroke-miterlimit="10" pointer-events="none"/></svg>