<svg xmlns="http://www.w3.org/2000/svg" width="16" height="16" viewBox="0 0 16 16">
  <path fill="#FFF" fill-rule="evenodd" d="M15.5,5 L15.5,11.953125 C15.5,12.0885423 15.4557296,12.2135411 15.3671875,12.328125 C15.2786454,12.4427089 15.1614591,12.5 15.015625,12.5 L10,12.5 L10,7.875 L10.9296875,8.6875 C10.9973962,8.74479195 11.0729163,8.7734375 11.15625,8.7734375 C11.2447921,8.7734375 11.3229163,8.74479195 11.390625,8.6875 L15.5,5 Z M15.4921875,3.96875 L11.15625,7.75 L10,6.765625 L10,3.5 L15.015625,3.5 C15.145834,3.5 15.2552079,3.54687453 15.34375,3.640625 C15.4322921,3.73437547 15.4817708,3.84374938 15.4921875,3.96875 Z M3.625,8.0078125 C3.625,7.78906141 3.6471352,7.56901152 3.69140625,7.34765625 C3.7356773,7.12630098 3.80989531,6.92578215 3.9140625,6.74609375 C4.01822969,6.56640535 4.15755121,6.41927141 4.33203125,6.3046875 C4.50651129,6.19010359 4.72395703,6.1328125 4.984375,6.1328125 C5.22395953,6.1328125 5.42317629,6.19661395 5.58203125,6.32421875 C5.74088621,6.45182355 5.86588496,6.61067613 5.95703125,6.80078125 C6.04817754,6.99088637 6.11197898,7.19661348 6.1484375,7.41796875 C6.18489602,7.63932402 6.203125,7.84374906 6.203125,8.03125 C6.203125,8.2239593 6.18359395,8.42838434 6.14453125,8.64453125 C6.10546855,8.86067816 6.0377609,9.05859285 5.94140625,9.23828125 C5.8450516,9.41796965 5.71614664,9.56770773 5.5546875,9.6875 C5.39322836,9.80729227 5.19270953,9.8671875 4.953125,9.8671875 C4.69791539,9.8671875 4.48567793,9.80989641 4.31640625,9.6953125 C4.14713457,9.58072859 4.01171926,9.43359465 3.91015625,9.25390625 C3.80859324,9.07421785 3.7356773,8.87500109 3.69140625,8.65625 C3.6471352,8.43749891 3.625,8.22135523 3.625,8.0078125 Z M0.5,13.9921875 L0.5,2.0546875 L9.5,0.4375 L9.5,15.5625 L0.5,13.9921875 Z M2.5,8.0703125 C2.5,8.46093945 2.55338488,8.83333156 2.66015625,9.1875 C2.76692762,9.54166844 2.9257802,9.85286324 3.13671875,10.1210937 C3.3476573,10.3893243 3.61197758,10.6028638 3.9296875,10.7617187 C4.24739742,10.9205737 4.61718539,11 5.0390625,11 C5.31510555,11 5.57291547,10.9557296 5.8125,10.8671875 C6.05208453,10.7786454 6.2682282,10.6562508 6.4609375,10.5 C6.6536468,10.3437492 6.82161387,10.1588552 6.96484375,9.9453125 C7.10807363,9.73176977 7.22395789,9.50000125 7.3125,9.25 C7.38541703,9.04687398 7.4348957,8.83463652 7.4609375,8.61328125 C7.4869793,8.39192598 7.5,8.17187609 7.5,7.953125 C7.5,7.5937482 7.45312547,7.23828301 7.359375,6.88671875 C7.26562453,6.53515449 7.1223968,6.21875141 6.9296875,5.9375 C6.7369782,5.65624859 6.49088691,5.42968836 6.19140625,5.2578125 C5.89192559,5.08593664 5.53906453,5 5.1328125,5 C4.68489359,5 4.29557457,5.0833325 3.96484375,5.25 C3.63411293,5.4166675 3.36067816,5.64062359 3.14453125,5.921875 C2.92838434,6.20312641 2.76692762,6.52864398 2.66015625,6.8984375 C2.55338488,7.26823102 2.5,7.65885211 2.5,8.0703125 Z"/>
</svg>